<?xml version="1.0" encoding="UTF-8"?>
<svg width="54px" height="54px" viewBox="0 0 54 54" version="1.1" xmlns="http://www.w3.org/2000/svg" xmlns:xlink="http://www.w3.org/1999/xlink">
    <title>35748507-2C19-48DD-B6F1-D42BFA7AB396</title>
    <defs>
        <linearGradient x1="0%" y1="50%" x2="100%" y2="50%" id="linearGradient-1">
            <stop stop-color="#FC7279" offset="0%"></stop>
            <stop stop-color="#EA0B12" offset="100%"></stop>
        </linearGradient>
    </defs>
    <g id="Design" stroke="none" stroke-width="1" fill="none" fill-rule="evenodd">
        <g id="AMO" transform="translate(-97.000000, -138.000000)">
            <g id="AMO-icon" transform="translate(97.000000, 138.000000)">
                <rect id="Rectangle" fill="url(#linearGradient-1)" x="0" y="0" width="54" height="54"></rect>
                <g id="Group-5" transform="translate(13.000000, 16.000000)" fill="#FFFFFF">
                    <path d="M26.7617743,0.190048952 C27.2387475,0.190048952 27.6250555,0.576356956 27.6250555,1.05333021 L27.6250555,1.05333021 L27.6250555,19.1822367 C27.6250555,19.6592099 27.2387475,20.0455179 26.7617743,20.0455179 L26.7617743,20.0455179 L14.1319004,20.0455179 L8.33175534,25.0180188 C8.17202759,25.1539863 7.97240381,25.2252063 7.76953133,25.2252063 C7.64651168,25.2252063 7.52457217,25.1993079 7.40910795,25.1464308 C7.10264725,25.005074 6.90625007,24.6986296 6.90625007,24.3619364 L6.90625007,24.3619364 L6.90625007,20.045529 L0.863281259,20.045529 C0.386308004,20.045529 4.38760139e-12,19.659221 4.38760139e-12,19.1822477 L4.38760139e-12,19.1822477 L4.38760139e-12,1.05333021 C4.38760139e-12,0.576356956 0.386363807,0.190048952 0.863337062,0.190048952 L0.863337062,0.190048952 Z M13.8125001,10.5855693 C11.3064381,10.5855693 8.93750015,12.4807197 8.93750015,14.4855693 C8.93750015,15.0242685 9.48287615,15.4605693 10.1562501,15.4605693 C10.8296241,15.4605693 11.3750001,15.0242685 11.3750001,14.4855693 C11.3750001,13.5556533 12.6501051,12.5355693 13.8125001,12.5355693 C14.9748951,12.5355693 16.2500001,13.5556533 16.2500001,14.4855693 C16.2500001,15.0242685 16.7953761,15.4605693 17.4687501,15.4605693 C18.1421241,15.4605693 18.6875001,15.0242685 18.6875001,14.4855693 C18.6875001,12.4807197 16.3185621,10.5855693 13.8125001,10.5855693 Z M10.8956193,5.33520167 C10.2943915,4.72159944 9.20560852,4.72159944 8.60438067,5.33520167 C8.29562869,5.63790302 8.125,6.05514624 8.125,6.48873614 C8.125,6.92232604 8.29562349,7.33957973 8.60438067,7.65049107 C8.90500499,7.95319243 9.31938524,8.125 9.75,8.125 C10.1806252,8.125 10.5950054,7.95319766 10.8956193,7.65049107 C11.2043713,7.33960591 11.375,6.92237839 11.375,6.48873614 C11.375,6.05509388 11.2043765,5.63789255 10.8956193,5.33520167 Z M19.0206193,5.32787962 C18.4193915,4.72268431 17.3306085,4.72268431 16.7293807,5.33605567 C16.4206287,5.63866379 16.25,6.05577851 16.25,6.48923486 C16.25,6.92269122 16.4206235,7.3398164 16.7293807,7.65063198 C17.030005,7.95324011 17.4524973,8.125 17.8749636,8.125 C18.2974663,8.125 18.719969,7.95325058 19.028747,7.64245593 C19.3293713,7.33984781 19.5,6.91456751 19.5,6.48927674 C19.5,6.06398597 19.3293765,5.6386952 19.0206193,5.32787962 Z" id="Combined-Shape"></path>
                </g>
            </g>
        </g>
    </g>
</svg>
