<?xml version="1.0" encoding="UTF-8"?>
<svg width="19px" height="16px" viewBox="0 0 19 16" version="1.1" xmlns="http://www.w3.org/2000/svg" xmlns:xlink="http://www.w3.org/1999/xlink">
    <title>DDC07B61-6197-4AE3-9491-7C4504C1456C</title>
    <g id="Design" stroke="none" stroke-width="1" fill="none" fill-rule="evenodd">
        <g id="Icon-Inactive" transform="translate(-321.000000, -46.000000)" fill="#525254">
            <path d="M338.825001,46 C339.142695,46 339.4,46.2468899 339.4,46.5517241 L339.4,46.5517241 L339.4,58.1379306 C339.4,58.4427648 339.142695,58.6896548 338.825001,58.6896548 L338.825001,58.6896548 L330.412722,58.6896548 L326.549466,61.8675862 C326.443077,61.9544832 326.310115,62 326.17499,62 C326.093051,62 326.011832,61.9834483 325.934925,61.9496545 C325.730803,61.8593132 325.599991,61.6634642 325.599991,61.4482831 L325.599991,61.4482831 L325.599991,58.6896618 L321.574999,58.6896618 C321.257305,58.6896618 321,58.4427719 321,58.1379377 L321,58.1379377 L321,46.5517241 C321,46.2468899 321.257342,46 321.575036,46 L321.575036,46 Z M330.199982,52.6437899 C328.530789,52.6437899 326.952929,53.8549829 326.952929,55.1362847 C326.952929,55.4805681 327.316184,55.7594085 327.764692,55.7594085 C328.213201,55.7594085 328.576455,55.4805681 328.576455,55.1362847 C328.576455,54.5419743 329.425754,53.8900373 330.199982,53.8900373 C330.974209,53.8900373 331.823508,54.5419743 331.823508,55.1362847 C331.823508,55.4805681 332.186762,55.7594085 332.635271,55.7594085 C333.08378,55.7594085 333.447034,55.4805681 333.447034,55.1362847 C333.447034,53.8549829 331.869174,52.6437899 330.199982,52.6437899 Z M328.257158,49.2882735 C327.856703,48.8961195 327.131506,48.8961195 326.731051,49.2882735 C326.525403,49.4817303 326.411754,49.7483909 326.411754,50.0254988 C326.411754,50.3026066 326.5254,50.569274 326.731051,50.7679778 C326.931286,50.9614346 327.207288,51.071237 327.494105,51.071237 C327.780928,51.071237 328.056931,50.9614379 328.257158,50.7679778 C328.462806,50.5692907 328.576455,50.3026401 328.576455,50.0254988 C328.576455,49.7483575 328.46281,49.4817236 328.257158,49.2882735 Z M333.668912,49.2835939 C333.268457,48.8968129 332.54326,48.8968129 332.142805,49.2888193 C331.937157,49.4822165 331.823508,49.748795 331.823508,50.0258175 C331.823508,50.30284 331.937153,50.5694252 332.142805,50.7680678 C332.343039,50.9614651 332.624445,51.071237 332.905858,51.071237 C333.187247,51.071237 333.46866,50.9614718 333.674325,50.7628425 C333.87456,50.5694453 333.988209,50.2976481 333.988209,50.0258443 C333.988209,49.7540404 333.874563,49.4822366 333.668912,49.2835939 Z" id="icon-toolbar-inactive"></path>
        </g>
    </g>
</svg>
