<?xml version="1.0" encoding="UTF-8"?>
<svg width="19px" height="19px" viewBox="0 0 19 19" version="1.1" xmlns="http://www.w3.org/2000/svg" xmlns:xlink="http://www.w3.org/1999/xlink">
    <title>684AF8D2-4F10-4C06-B0E0-477CB19EFA8E</title>
    <g id="Design" stroke="none" stroke-width="1" fill="none" fill-rule="evenodd">
        <g id="Icon" transform="translate(-35.700000, -44.000000)" fill="#EA0B12">
            <path d="M53.8250011,46 C54.1426949,46 54.4,46.2468899 54.4,46.5517241 L54.4,46.5517241 L54.4,58.1379306 C54.4,58.4427648 54.1426949,58.6896548 53.8250011,58.6896548 L53.8250011,58.6896548 L45.412722,58.6896548 L41.5494657,61.8675862 C41.4430771,61.9544832 41.3101153,62 41.1749897,62 C41.0930509,62 41.0118317,61.9834483 40.9349253,61.9496545 C40.7308035,61.8593132 40.5999908,61.6634642 40.5999908,61.4482831 L40.5999908,61.4482831 L40.5999908,58.6896618 L36.5749988,58.6896618 C36.2573051,58.6896618 36,58.4427719 36,58.1379377 L36,58.1379377 L36,46.5517241 C36,46.2468899 36.2573423,46 36.575036,46 L36.575036,46 Z M45.1999816,52.6437899 C43.5307889,52.6437899 41.9529293,53.8549829 41.9529293,55.1362847 C41.9529293,55.4805681 42.3161835,55.7594085 42.7646924,55.7594085 C43.2132012,55.7594085 43.5764555,55.4805681 43.5764555,55.1362847 C43.5764555,54.5419743 44.4257545,53.8900373 45.1999816,53.8900373 C45.9742087,53.8900373 46.8235077,54.5419743 46.8235077,55.1362847 C46.8235077,55.4805681 47.186762,55.7594085 47.6352708,55.7594085 C48.0837797,55.7594085 48.4470339,55.4805681 48.4470339,55.1362847 C48.4470339,53.8549829 46.8691743,52.6437899 45.1999816,52.6437899 Z M43.2571581,49.2882735 C42.8567031,48.8961195 42.1315061,48.8961195 41.7310511,49.2882735 C41.5254031,49.4817303 41.4117538,49.7483909 41.4117538,50.0254988 C41.4117538,50.3026066 41.5253997,50.569274 41.7310511,50.7679778 C41.9312855,50.9614346 42.2072885,51.071237 42.4941046,51.071237 C42.7809276,51.071237 43.0569306,50.9614379 43.2571581,50.7679778 C43.4628061,50.5692907 43.5764554,50.3026401 43.5764554,50.0254988 C43.5764554,49.7483575 43.4628095,49.4817236 43.2571581,49.2882735 Z M48.6689119,49.2835939 C48.2684569,48.8968129 47.5432599,48.8968129 47.1428049,49.2888193 C46.9371569,49.4822165 46.8235077,49.748795 46.8235077,50.0258175 C46.8235077,50.30284 46.9371535,50.5694252 47.1428049,50.7680678 C47.3430393,50.9614651 47.6244454,51.071237 47.9058584,51.071237 C48.1872472,51.071237 48.4686602,50.9614718 48.6743255,50.7628425 C48.8745599,50.5694453 48.9882092,50.2976481 48.9882092,50.0258443 C48.9882092,49.7540404 48.8745634,49.4822366 48.6689119,49.2835939 Z" id="icon-toolbar-active"></path>
        </g>
    </g>
</svg>