<?xml version="1.0" encoding="UTF-8"?>
<svg width="14px" height="14px" viewBox="0 0 14 14" version="1.1" xmlns="http://www.w3.org/2000/svg" xmlns:xlink="http://www.w3.org/1999/xlink">
    <title>83599912-6E9B-45FB-AF8D-677E234A17C5</title>
    <g id="Design" stroke="none" stroke-width="1" fill="none" fill-rule="evenodd">
        <g id="Extension-Doorhanger-Form" transform="translate(-30.000000, -88.000000)" fill="#FFFFFF">
            <path d="M43.0540541,91.4895946 C42.4236757,90.4172703 41.582673,89.5770811 40.5104054,88.9459459 C39.4380811,88.3155676 38.2607568,88 37,88 C35.7384865,88 34.5611622,88.3155676 33.4895946,88.9459459 C32.4172703,89.5763243 31.5770811,90.417327 30.9459459,91.4895946 C30.3155676,92.5619189 30,93.7392432 30,95 C30,96.2615135 30.3155676,97.4388378 30.9459459,98.5104054 C31.5763243,99.5827297 32.417327,100.422919 33.4895946,101.054054 C34.5619189,101.684432 35.7392432,102 37,102 C38.2615135,102 39.4388378,101.684432 40.5104054,101.054054 C41.5827297,100.423676 42.4229189,99.582673 43.0540541,98.5104054 C43.6844324,97.4380811 44,96.2607568 44,95 C43.9793065,93.7178081 43.6637541,92.5611622 43.0540541,91.4895946 Z M41.9439246,93.6916223 L36.577151,98.8350823 C36.4699798,98.9377941 36.3197963,99 36.1477048,99 C35.9756268,99 35.8473223,98.9385181 35.7401492,98.8350823 L32.0481135,95.3168572 C31.9839622,95.2553753 31.9839622,95.1729173 32.0481135,95.1114299 L33.5288885,93.6922704 C33.5930398,93.6307885 33.7009646,93.6307885 33.7432349,93.6922704 L36.1689771,96.0170766 L40.2474313,92.0461114 C40.3115826,91.9846295 40.3976206,91.9846295 40.4617777,92.0461114 L41.3206508,92.8692465 L41.6640416,93.1781096 C41.6851749,93.1983635 41.6851749,93.1983635 41.7070616,93.2193395 L41.9863069,93.4869653 C42.0089491,93.5477232 42.0089491,93.650435 41.9440424,93.6916705 L41.9439246,93.6916223 Z" id="Fill-1"></path>
        </g>
    </g>
</svg>