<?xml version="1.0" encoding="UTF-8"?>
<svg width="28px" height="28px" viewBox="0 0 28 28" version="1.1" xmlns="http://www.w3.org/2000/svg" xmlns:xlink="http://www.w3.org/1999/xlink">
    <title>3D3B2D61-DF41-4EE0-BDC8-A0A0A4371764</title>
    <g id="Design" stroke="none" stroke-width="1" fill="none" fill-rule="evenodd">
        <g id="Extension-Doorhanger-Form" transform="translate(-48.000000, -349.000000)" fill="#000000" fill-rule="nonzero">
            <g id="Group-27" transform="translate(20.000000, 79.000000)">
                <g id="Group-20" transform="translate(19.000000, 47.000000)">
                    <g id="Group-22" transform="translate(1.000000, 194.000000)">
                        <g id="Group-21" transform="translate(0.000000, 23.000000)">
                            <g id="icon-face-1" transform="translate(8.000000, 6.000000)">
                                <path d="M13.6940493,27.388098 C10.0617431,27.388098 6.57894367,25.9456796 4.01122893,23.3768694 C1.442322,20.8092191 -5.34683409e-13,17.3266774 -5.34683409e-13,13.694049 C-5.34683409e-13,10.0614206 1.44241867,6.57894335 4.01122893,4.01122861 C6.57887923,1.44232168 10.0614209,2.13162821e-14 13.6940493,2.13162821e-14 C17.3266777,2.13162821e-14 20.809155,1.44241835 23.3768697,4.01122861 C25.9457766,6.57887891 27.3880983,10.0614206 27.3880983,13.694049 C27.384322,17.3253886 25.9393968,20.8052881 23.3730031,23.3730028 C20.8053528,25.9393643 17.3250667,27.3842311 13.6940493,27.388098 L13.6940493,27.388098 Z M13.6940493,1.61106459 C10.4895452,1.61106459 7.41605283,2.88354784 5.15025159,5.15025127 C2.88341928,7.41579474 1.61106491,10.4893193 1.61106491,13.694049 C1.61106491,16.8987787 2.88354816,19.9720455 5.15025159,22.2378467 C7.41579506,24.504679 10.4893196,25.7770334 13.6940493,25.7770334 C16.898779,25.7770334 19.9720458,24.5045501 22.237847,22.2378467 C24.5046793,19.9723032 25.7770337,16.8987787 25.7770337,13.694049 C25.7732574,10.4908015 24.4995239,7.41959685 22.2339805,5.15411783 C19.968437,2.8886388 16.8974901,1.61493114 13.6940493,1.61106459 Z" id="Fill-1"></path>
                                <path d="M10.234127,11.1163457 C10.234127,13.3202176 6.92757805,13.3202176 6.92757805,11.1163457 C6.92757805,8.91247374 10.234127,8.91247374 10.234127,11.1163457" id="Fill-2"></path>
                                <path d="M20.4643871,11.1163457 C20.4643871,13.3202176 17.1578382,13.3202176 17.1578382,11.1163457 C17.1578382,8.91247374 20.4643871,8.91247374 20.4643871,11.1163457" id="Fill-3"></path>
                                <path d="M18.8104682,19.9772009 L8.5802081,19.9772009 C8.13590871,19.9772009 7.77467581,19.615968 7.77467581,19.1716686 C7.77467581,18.7273692 8.13590871,18.3661363 8.5802081,18.3661363 L18.8104682,18.3661363 C19.2560243,18.3661363 19.6160005,18.7273692 19.6160005,19.1716686 C19.6160005,19.615968 19.2560243,19.9772009 18.8104682,19.9772009 Z" id="Fill-4"></path>
                            </g>
                        </g>
                    </g>
                </g>
            </g>
        </g>
    </g>
</svg>
