<?xml version="1.0" encoding="UTF-8"?>
<svg width="28px" height="28px" viewBox="0 0 28 28" version="1.1" xmlns="http://www.w3.org/2000/svg" xmlns:xlink="http://www.w3.org/1999/xlink">
    <title>5294566C-F014-420F-98BB-9D5431ABD9A5</title>
    <g id="Design" stroke="none" stroke-width="1" fill="none" fill-rule="evenodd">
        <g id="Extension-Doorhanger-Form" transform="translate(-92.000000, -349.000000)" fill="#000000" fill-rule="nonzero">
            <g id="Group-27" transform="translate(20.000000, 79.000000)">
                <g id="Group-20" transform="translate(19.000000, 47.000000)">
                    <g id="Group-22" transform="translate(1.000000, 194.000000)">
                        <g id="Group-21" transform="translate(0.000000, 23.000000)">
                            <g id="icon-face-2" transform="translate(52.000000, 6.000000)">
                                <path d="M13.8551555,27.5492044 C6.29214103,27.5492044 0.161106459,21.4181699 0.161106459,13.8551555 C0.161106459,6.29214103 6.29214103,0.161106459 13.8551555,0.161106459 C21.4181699,0.161106459 27.5492044,6.29214103 27.5492044,13.8551555 C27.5403268,21.4144896 21.4144896,27.5403268 13.8551555,27.5492044 L13.8551555,27.5492044 Z M13.8551555,1.77217105 C7.18190743,1.77217105 1.77217105,7.18190743 1.77217105,13.8551555 C1.77217105,20.5284035 7.18190743,25.9381399 13.8551555,25.9381399 C20.5284035,25.9381399 25.9381399,20.5284035 25.9381399,13.8551555 C25.9310362,7.18485207 20.5254588,1.77927468 13.8551555,1.77217105 Z" id="Shape"></path>
                                <circle id="Oval" cx="8.74163645" cy="11.2774521" r="1.65295227"></circle>
                                <circle id="Oval" cx="18.6529523" cy="11.6529523" r="1.65295227"></circle>
                                <path d="M8.73841432,21.427159 C8.42460413,21.4266446 8.13965742,21.2439353 8.00824024,20.9589675 C7.87682307,20.6739997 7.92286008,20.3386523 8.12620978,20.0996418 C9.43321943,18.6738524 11.2187221,17.7782342 13.1430649,17.5831589 C15.2793365,17.4123861 17.4188303,18.2275847 19.4971036,20.0126443 C19.7158233,20.1997071 19.8181317,20.4892458 19.7654903,20.772194 C19.712849,21.0551422 19.5132553,21.2885132 19.2418943,21.3843985 C18.9705334,21.4802839 18.6686313,21.4241162 18.4499117,21.2370534 C16.7099619,19.7452076 14.9700121,19.0588941 13.2719501,19.1910014 C11.7699792,19.3466312 10.374947,20.0401419 9.34417461,21.1436116 C9.19315536,21.3217983 8.97198218,21.4253262 8.73841432,21.427159 L8.73841432,21.427159 Z" id="Path"></path>
                            </g>
                        </g>
                    </g>
                </g>
            </g>
        </g>
    </g>
</svg>