<?xml version="1.0" encoding="UTF-8"?>
<svg width="28px" height="29px" viewBox="0 0 28 29" version="1.1" xmlns="http://www.w3.org/2000/svg" xmlns:xlink="http://www.w3.org/1999/xlink">
    <title>C1D59BDA-1219-4AD4-9691-F7AD36582722</title>
    <g id="Design" stroke="none" stroke-width="1" fill="none" fill-rule="evenodd">
        <g id="Extension-Doorhanger-Form" transform="translate(-135.000000, -350.000000)" fill="#000000">
            <g id="icon-face-3" transform="translate(135.000000, 350.000000)">
                <g fill-rule="nonzero" id="noun_Face_2472188-Copy">
                    <g transform="translate(0.000000, 0.255490)">
                        <path d="M13.8551555,27.5492044 C6.29214103,27.5492044 0.161106459,21.4181699 0.161106459,13.8551555 C0.161106459,6.29214103 6.29214103,0.161106459 13.8551555,0.161106459 C21.4181699,0.161106459 27.5492044,6.29214103 27.5492044,13.8551555 C27.5403268,21.4144896 21.4144896,27.5403268 13.8551555,27.5492044 L13.8551555,27.5492044 Z M13.8551555,1.77217105 C7.18190743,1.77217105 1.77217105,7.18190743 1.77217105,13.8551555 C1.77217105,20.5284035 7.18190743,25.9381399 13.8551555,25.9381399 C20.5284035,25.9381399 25.9381399,20.5284035 25.9381399,13.8551555 C25.9310362,7.18485207 20.5254588,1.77927468 13.8551555,1.77217105 Z" id="Shape"></path>
                        <path d="M9.53560587,21.427159 C9.27067328,21.4266446 9.03010853,21.2439353 8.91916028,20.9589675 C8.80821203,20.6739997 8.84707853,20.3386523 9.01875543,20.0996418 C10.1221914,18.6738524 11.6295926,17.7782342 13.2542088,17.5831589 C15.0577448,17.4123861 16.864001,18.2275847 18.6185723,20.0126443 C18.8032251,20.1997071 18.8895985,20.4892458 18.8451563,20.772194 C18.8007141,21.0551422 18.6322082,21.2885132 18.4031132,21.3843985 C18.1740181,21.4802839 17.9191389,21.4241162 17.734486,21.2370534 C16.2655426,19.7452076 14.7965993,19.0588941 13.3630194,19.1910014 C12.0949885,19.3466312 10.9172399,20.0401419 10.0470158,21.1436116 C9.91951858,21.3217983 9.7327943,21.4253262 9.53560587,21.427159 L9.53560587,21.427159 Z" id="Path"></path>
                    </g>
                </g>
                <g id="Group-4" transform="translate(6.000000, 10.000000)">
                    <polygon id="Fill-3" points="0.72254814 7 0 5.43961122 2.92653047 3.5 0 1.56038878 0.72254814 0 6 3.50004131"></polygon>
                    <polygon id="Fill-4" points="14.2788322 7 9 3.5 14.2788322 0 15 1.56037037 12.0748154 3.49995869 15 5.43954702"></polygon>
                </g>
                <path d="M18.2066507,5.31668195 L18.3581504,5.79317731 C18.8414035,7.31309946 19.9249929,8.17611684 21.6876711,8.41809309 L21.9322529,8.4472438 L22.4296862,8.49784166 L22.3284905,9.4927082 L21.8310572,9.44211033 C19.6293438,9.21815667 18.1529329,8.16574582 17.4818224,6.32130867 L17.4051597,6.09617682 L17.25366,5.61968146 L18.2066507,5.31668195 Z" id="Path-6" fill-rule="nonzero" transform="translate(19.841673, 7.404695) rotate(-15.000000) translate(-19.841673, -7.404695) "></path>
                <path d="M6.20665066,5.31668195 L6.35815042,5.79317731 C6.84140346,7.31309946 7.92499288,8.17611684 9.68767109,8.41809309 L9.93225293,8.4472438 L10.4296862,8.49784166 L10.3284905,9.4927082 L9.83105719,9.44211033 C7.62934384,9.21815667 6.15293289,8.16574582 5.4818224,6.32130867 L5.40515971,6.09617682 L5.25365995,5.61968146 L6.20665066,5.31668195 Z" id="Path-6-Copy" fill-rule="nonzero" transform="translate(7.841673, 7.404695) scale(-1, 1) rotate(-15.000000) translate(-7.841673, -7.404695) "></path>
            </g>
        </g>
    </g>
</svg>