<?xml version="1.0" encoding="UTF-8"?>
<svg width="23px" height="20px" viewBox="0 0 23 20" version="1.1" xmlns="http://www.w3.org/2000/svg" xmlns:xlink="http://www.w3.org/1999/xlink">
    <title>F64B7E99-6D4B-42ED-94F0-537EB3C9D1E9</title>
    <g id="Design" stroke="none" stroke-width="1" fill="none" fill-rule="evenodd">
        <g id="Extension-Doorhanger-Form" transform="translate(-21.000000, -21.000000)" fill="#FFFFFF">
            <g id="Group-25" transform="translate(21.000000, 4.000000)">
                <g id="Group-29" transform="translate(0.000000, 17.000000)">
                    <g id="Group-5-Copy">
                        <path d="M22.2812514,-1.0658141e-14 C22.6783686,-1.0658141e-14 23,0.308612404 23,0.68965515 L23,0.68965515 L23,15.1724133 C23,15.553456 22.6783686,15.8620684 22.2812514,15.8620684 L22.2812514,15.8620684 L11.7659025,15.8620684 L6.93683213,19.8344828 C6.80384639,19.943104 6.63764412,20 6.46873706,20 C6.36631367,20 6.26478957,19.9793103 6.16865666,19.9370681 C5.91350437,19.8241415 5.7499885,19.5793302 5.7499885,19.3103539 L5.7499885,19.3103539 L5.7499885,15.8620773 L0.718748563,15.8620773 C0.321631357,15.8620773 2.54907206e-12,15.5534649 2.54907206e-12,15.1724221 L2.54907206e-12,15.1724221 L2.54907206e-12,0.68965515 C2.54907206e-12,0.308612404 0.321677817,-1.0658141e-14 0.718795022,-1.0658141e-14 L0.718795022,-1.0658141e-14 Z M11.499977,8.30473741 C9.41348614,8.30473741 7.44116163,9.81872861 7.44116163,11.4203559 C7.44116163,11.8507101 7.89522942,12.1992606 8.45586547,12.1992606 C9.01650152,12.1992606 9.47056932,11.8507101 9.47056932,11.4203559 C9.47056932,10.6774679 10.5321931,9.86254667 11.499977,9.86254667 C12.4677609,9.86254667 13.5293847,10.6774679 13.5293847,11.4203559 C13.5293847,11.8507101 13.9834525,12.1992606 14.5440885,12.1992606 C15.1047246,12.1992606 15.5587924,11.8507101 15.5587924,11.4203559 C15.5587924,9.81872861 13.5864679,8.30473741 11.499977,8.30473741 Z M9.07144763,4.11034182 C8.57087885,3.6201494 7.66438263,3.6201494 7.16381385,4.11034182 C6.90675389,4.35216283 6.76469228,4.68548866 6.76469228,5.03187346 C6.76469228,5.37825826 6.90674956,5.71159245 7.16381385,5.95997223 C7.4141069,6.20179324 7.75911058,6.33904628 8.11763074,6.33904628 C8.47615956,6.33904628 8.82116324,6.20179742 9.07144763,5.95997223 C9.32850758,5.71161336 9.47056919,5.37830008 9.47056919,5.03187346 C9.47056919,4.68544683 9.32851191,4.35215447 9.07144763,4.11034182 Z M15.8361399,4.10449241 C15.3355711,3.62101607 14.4290749,3.62101607 13.9285061,4.11102407 C13.6714462,4.3527706 13.5293846,4.68599376 13.5293846,5.03227188 C13.5293846,5.37854999 13.6714418,5.71178152 13.9285061,5.9600848 C14.1787992,6.20183133 14.5305568,6.33904628 14.8822927,6.33904628 C15.234059,6.33904628 15.5858252,6.20183969 15.8429068,5.95355314 C16.0931999,5.71180661 16.2352615,5.37206015 16.2352615,5.03230533 C16.2352615,4.69255051 16.0932042,4.35279569 15.8361399,4.10449241 Z" id="Doorhanger-icon"></path>
                    </g>
                </g>
            </g>
        </g>
    </g>
</svg>