<?xml version="1.0" encoding="UTF-8"?>
<svg width="1288px" height="871px" viewBox="0 0 1288 871" version="1.1" xmlns="http://www.w3.org/2000/svg" xmlns:xlink="http://www.w3.org/1999/xlink">
    <title>Circles</title>
    <g id="Circles" stroke="none" stroke-width="1" fill="none" fill-rule="evenodd" opacity="0.1">
        <g id="Group-22" transform="translate(11.000000, -641.000000)" stroke="#FFFFFF" stroke-width="3">
            <g id="Group-21" transform="translate(0.000000, 0.900000)">
                <g id="Group-4">
                    <path d="M1266.5259,633.5495 C1266.5259,983.1185 983.1449,1266.5005 633.5759,1266.5005 C284.0069,1266.5005 0.6249,983.1185 0.6249,633.5495 C0.6249,283.9805 284.0069,0.5995 633.5759,0.5995 C983.1449,0.5995 1266.5259,283.9805 1266.5259,633.5495 Z" id="Stroke-2"></path>
                </g>
                <path d="M838.8125,633.5495 C838.8125,746.8995 746.9245,838.7865 633.5755,838.7865 C520.2265,838.7865 428.3385,746.8995 428.3385,633.5495 C428.3385,520.2005 520.2265,428.3125 633.5755,428.3125 C746.9245,428.3125 838.8125,520.2005 838.8125,633.5495 Z" id="Stroke-7"></path>
                <g id="Group-11" transform="translate(211.000000, 211.000000)">
                    <path d="M844.5112,422.5495 C844.5112,655.5785 655.6042,844.4855 422.5752,844.4855 C189.5472,844.4855 0.6402,655.5785 0.6402,422.5495 C0.6402,189.5215 189.5472,0.6145 422.5752,0.6145 C655.6042,0.6145 844.5112,189.5215 844.5112,422.5495 Z" id="Stroke-9"></path>
                </g>
                <g id="Group-14" transform="translate(117.000000, 117.000000)">
                    <path d="M1032.6792,516.5495 C1032.6792,801.5865 801.6122,1032.6535 516.5752,1032.6535 C231.5392,1032.6535 0.4712,801.5865 0.4712,516.5495 C0.4712,231.5135 231.5392,0.4465 516.5752,0.4465 C801.6122,0.4465 1032.6792,231.5135 1032.6792,516.5495 Z" id="Stroke-12"></path>
                </g>
                <path d="M647.2505,633.5495 C647.2505,641.1025 641.1275,647.2245 633.5755,647.2245 C626.0225,647.2245 619.9005,641.1025 619.9005,633.5495 C619.9005,625.9975 626.0225,619.8745 633.5755,619.8745 C641.1275,619.8745 647.2505,625.9975 647.2505,633.5495 Z" id="Stroke-15" opacity="0.2"></path>
                <path d="M757.2739,633.5495 C757.2739,701.8665 701.8919,757.2485 633.5759,757.2485 C565.2589,757.2485 509.8769,701.8665 509.8769,633.5495 C509.8769,565.2335 565.2589,509.8515 633.5759,509.8515 C701.8919,509.8515 757.2739,565.2335 757.2739,633.5495 Z" id="Stroke-17"></path>
                <path d="M946.1958,633.5495 C946.1958,806.2055 806.2308,946.1695 633.5758,946.1695 C460.9198,946.1695 320.9558,806.2055 320.9558,633.5495 C320.9558,460.8945 460.9198,320.9295 633.5758,320.9295 C806.2308,320.9295 946.1958,460.8945 946.1958,633.5495 Z" id="Stroke-19"></path>
            </g>
        </g>
    </g>
</svg>