<?xml version="1.0" encoding="UTF-8"?>
<svg width="20px" height="20px" viewBox="0 0 20 20" version="1.1" xmlns="http://www.w3.org/2000/svg" xmlns:xlink="http://www.w3.org/1999/xlink">
    <title>Combined Shape</title>
    <g id="Page-1" stroke="none" stroke-width="1" fill="none" fill-rule="evenodd">
        <g id="Scenario1-V13---7" transform="translate(-450.000000, -274.000000)" fill="#FFFFFF" fill-rule="nonzero">
            <g id="Group-5">
                <path d="M460,274 C462.652165,274 465.195704,275.053568 467.071068,276.928932 C468.946432,278.804296 470,281.347835 470,284 C470,286.652165 468.946432,289.195704 467.071068,291.071068 C465.195704,292.946432 462.652165,294 460,294 C457.347835,294 454.804296,292.946432 452.928932,291.071068 C451.053568,289.195704 450,286.652165 450,284 C450,278.477153 454.477153,274 460,274 Z M460,285.111111 C458.078598,285.111111 456.385013,286.086516 455.387402,287.569171 C454.38979,289.051826 456.465722,290.292845 457.009912,289.19173 C457.554102,288.090616 458.688614,287.333333 460,287.333333 C461.405157,287.333333 462.607242,288.202787 463.09762,289.43306 C463.587998,290.663333 465.72333,289.382105 464.74836,287.781144 C463.773391,286.180183 462.011543,285.111111 460,285.111111 Z M456.5,280 C455.7,280 455,280.7 455,281.5 C455,282.3 455.7,283 456.5,283 C457.3,283 458,282.3 458,281.5 C458,280.7 457.3,280 456.5,280 Z M463.5,280 C462.7,280 462,280.7 462,281.5 C462,282.3 462.7,283 463.5,283 C464.3,283 465,282.3 465,281.5 C465,280.7 464.3,280 463.5,280 Z" id="Combined-Shape"></path>
            </g>
        </g>
    </g>
</svg>