<?xml version="1.0" encoding="UTF-8"?>
<svg width="20px" height="19px" viewBox="0 0 20 19" version="1.1" xmlns="http://www.w3.org/2000/svg" xmlns:xlink="http://www.w3.org/1999/xlink">
    <title>Combined Shape</title>
    <g id="Page-1" stroke="none" stroke-width="1" fill="none" fill-rule="evenodd">
        <g id="Scenario1-V13---5" transform="translate(-273.000000, -214.000000)" fill="#FFFFFF" fill-rule="nonzero">
            <g id="Group" transform="translate(268.000000, 209.000000)">
                <path d="M23.447907,17.6976744 L24.5,18.9765116 L20.1918605,23.2846512 L17.6976744,20.5637209 L18.7497674,19.5116279 L20.1918605,20.9537209 L23.447907,17.6976744 Z M14.0697674,5 C19.0581395,5 23.1395349,9.08139535 23.1395349,14.0697674 L23.057907,15.257907 C22.5137209,15.0765116 21.9332558,14.9767442 21.3255814,14.9767442 C20.3856676,14.9767442 19.5008746,15.2158974 18.7288204,15.6365858 C18.2985483,15.8646825 17.9019347,16.1482372 17.5487633,16.4777554 L17.5614041,16.4905258 C16.6546136,15.5704018 15.393919,15 14,15 C12.2707378,15 10.7465118,15.8778645 9.84866143,17.2122541 C8.95081104,18.5466438 10.8191498,19.6635603 11.3089206,18.6725572 C11.7986915,17.6815541 12.819753,17 14,17 C14.8966069,17 15.7013464,17.3933315 16.251081,18.0168572 L16.3385779,18.123387 C15.9933698,18.8427397 15.8,19.6487879 15.8,20.5 C15.8,21.2365349 15.9447771,21.9392553 16.2074255,22.5812556 L16.327,22.852 L16.0628068,22.9180394 C15.420155,23.0639535 14.7575581,23.1395349 14.0697674,23.1395349 C9.08139535,23.1395349 5,19.0581395 5,14.0697674 C5,9.08139535 9.08139535,5 14.0697674,5 Z M10.85,10.4 C10.13,10.4 9.5,11.03 9.5,11.75 C9.5,12.47 10.13,13.1 10.85,13.1 C11.57,13.1 12.2,12.47 12.2,11.75 C12.2,11.03 11.57,10.4 10.85,10.4 Z M17.15,10.4 C16.43,10.4 15.8,11.03 15.8,11.75 C15.8,12.47 16.43,13.1 17.15,13.1 C17.87,13.1 18.5,12.47 18.5,11.75 C18.5,11.03 17.87,10.4 17.15,10.4 Z" id="Combined-Shape"></path>
            </g>
        </g>
    </g>
</svg>