<?xml version="1.0" encoding="UTF-8"?>
<svg width="20px" height="21px" viewBox="0 0 20 21" version="1.1" xmlns="http://www.w3.org/2000/svg" xmlns:xlink="http://www.w3.org/1999/xlink">
    <title>Group 2</title>
    <g id="Page-1" stroke="none" stroke-width="1" fill="none" fill-rule="evenodd">
        <g id="Scenario1-V13---9" transform="translate(-272.000000, -213.000000)" fill-rule="nonzero">
            <g id="Group" transform="translate(268.000000, 209.000000)">
                <g id="Group-2" transform="translate(4.000000, 4.540000)">
                    <polyline id="Combined-Shape" fill="#FFFFFF" points="20 9.50909091 17.7818182 6.98181818 18.0909091 3.63636364 14.8090909 2.89090909 13.0909091 -5.63912553e-13 10 1.32727273 6.90909091 -5.63912553e-13 5.19090909 2.89090909 1.90909091 3.62727273 2.21818182 6.97272727 0 9.50909091 2.21818182 12.0363636 1.90909091 15.3909091 5.19090909 16.1363636 6.90909091 19.0272727 10 17.6909091 13.0909091 19.0181818 14.8090909 16.1272727 18.0909091 15.3818182 17.7818182 12.0363636 20 9.50909091"></polyline>
                    <path d="M13.0909091,-5.63105118e-13 L14.8090909,2.89090909 L18.0909091,3.63636364 L17.7818182,6.98181818 L20,9.50909091 L17.7818182,12.0363636 L18.0909091,15.3818182 L14.8090909,16.1272727 L13.0909091,19.0181818 L10,17.6909091 L6.90909091,19.0272727 L5.19090909,16.1363636 L1.90909091,15.3909091 L2.21818182,12.0363636 L0,9.50909091 L2.21818182,6.97272727 L1.90909091,3.62727273 L5.19090909,2.89090909 L6.90909091,-5.63105118e-13 L10,1.32727273 L13.0909091,-5.63105118e-13 Z M14.1727273,5.49090909 L8.18181818,11.4818182 L5.82727273,9.13636364 L4.54545455,10.4181818 L8.18181818,14.0545455 L15.4545455,6.78181818 L14.1727273,5.49090909 Z" id="Combined-Shape" fill="#D40000"></path>
                </g>
            </g>
        </g>
    </g>
</svg>