<?xml version="1.0" encoding="UTF-8"?>
<svg width="190px" height="54px" viewBox="0 0 190 54" version="1.1" xmlns="http://www.w3.org/2000/svg" xmlns:xlink="http://www.w3.org/1999/xlink">
    <title>A5C6D1B7-9C7F-40B8-AAC7-D8046DE9D18A</title>
    <g id="Design" stroke="none" stroke-width="1" fill="none" fill-rule="evenodd">
        <g id="Welcome-3UP" transform="translate(-525.000000, -3034.000000)" fill-rule="nonzero">
            <g id="Group-13" transform="translate(-2.000000, 2364.000000)">
                <g id="Mozilla-Logo" transform="translate(527.000000, 670.000000)">
                    <polygon id="Rectangle-path" fill="#FFFFFF" points="1.45935827e-14 -2.89299215e-14 190 -2.89299215e-14 190 54 1.45935827e-14 54"></polygon>
                    <path d="M181.84327,38.2564103 C181.477566,38.3618234 181.164106,38.4145299 180.850645,38.4145299 C179.753534,38.4145299 179.2311,37.9401709 179.2311,36.5698006 L179.2311,26.1866097 C179.2311,20.7051282 174.894899,18.0698006 169.827289,18.0698006 C165.961278,18.0698006 163.819299,18.5441595 159.692071,20.2307692 L158.75169,25.7122507 L164.185003,26.2920228 L164.968654,23.6039886 C166.065765,23.0242165 167.162876,22.9188034 168.573448,22.9188034 C172.387216,22.9188034 172.439459,25.8176638 172.439459,28.2948718 L172.439459,29.0854701 C171.237861,28.9273504 169.879533,28.8746439 168.573448,28.8746439 C163.140135,28.8746439 157.550092,30.2450142 157.550092,36.1481481 C157.550092,41.1552707 161.416103,43 164.864167,43 C168.677935,43 171.133374,40.6809117 172.491703,38.2037037 C172.805163,41.1025641 174.529195,43 177.716042,43 C179.178857,43 180.693915,42.5783476 182,41.8931624 L181.84327,38.2564103 Z M167.267363,38.0982906 C165.229871,38.0982906 164.498463,36.8860399 164.498463,35.3575499 C164.498463,32.7749288 166.588199,32.0897436 169.043639,32.0897436 C170.14075,32.0897436 171.342348,32.2478632 172.439459,32.4059829 C172.230486,36.3589744 169.670559,38.0982906 167.267363,38.0982906 Z M158.177013,6 L147.937308,42.4729345 L141.250154,42.4729345 L151.489859,6 L158.177013,6 Z M144.384757,6 L134.145052,42.4729345 L127.457898,42.4729345 L137.697603,6 L144.384757,6 Z M115.912108,18.5441595 L123.01721,18.5441595 L123.01721,27.1353276 L115.912108,27.1353276 L115.912108,18.5441595 Z M115.912108,33.8817664 L123.01721,33.8817664 L123.01721,42.4729345 L115.912108,42.4729345 L115.912108,33.8817664 Z M105.567916,33.5655271 L110.948986,34.0925926 L109.486171,42.4729345 L88.7455439,42.4729345 L88.0663798,38.8888889 L101.127228,23.7621083 L93.7086663,23.7621083 L92.6637984,27.451567 L87.7529195,26.9245014 L88.5888138,18.5441595 L109.433927,18.5441595 L109.956361,22.1282051 L96.7910264,37.2549858 L104.470805,37.2549858 L105.567916,33.5655271 Z M71.6097111,18.0698006 C63.0940381,18.0698006 58.8623233,23.8675214 58.8623233,30.8774929 C58.8623233,38.519943 63.9299324,43 71.2440074,43 C78.8192993,43 84.3048556,38.1509972 84.3048556,30.508547 C84.2526122,23.8675214 80.1253841,18.0698006 71.6097111,18.0698006 Z M71.4529809,37.7293447 C67.7959435,37.7293447 65.8629379,34.5669516 65.8629379,30.4031339 C65.8629379,25.8703704 68.004917,23.2877493 71.5052243,23.2877493 C74.6920713,23.2877493 77.3042409,25.4487179 77.3042409,30.2977208 C77.2519975,34.8831909 74.9532883,37.7293447 71.4529809,37.7293447 Z M52.7498463,37.2549858 L55.8844499,37.2549858 L55.8844499,42.4729345 L45.9582053,42.4729345 L45.9582053,28.980057 C45.9582053,24.8162393 44.5998771,23.2350427 41.935464,23.2350427 C38.6963737,23.2350427 37.3380455,25.5541311 37.3380455,28.9273504 L37.3380455,37.2549858 L40.472649,37.2549858 L40.472649,42.4729345 L30.5464044,42.4729345 L30.5464044,28.980057 C30.5464044,24.8162393 29.1880762,23.2350427 26.4714198,23.2350427 C23.2323294,23.2350427 21.8740012,25.5541311 21.8740012,28.9273504 L21.8740012,37.2549858 L26.4191764,37.2549858 L26.4191764,42.4729345 L12,42.4729345 L12,37.2549858 L15.1346036,37.2549858 L15.1346036,23.7094017 L12,23.7094017 L12,18.491453 L21.9262446,18.491453 L21.9262446,22.0754986 C23.3368162,19.545584 25.7922557,18.017094 29.1358328,18.017094 C32.5316533,18.017094 35.7185003,19.6509972 36.8678549,23.1823362 C38.1739398,20.019943 40.8383528,18.017094 44.5998771,18.017094 C48.8838353,18.017094 52.7498463,20.5997151 52.7498463,26.2920228 L52.7498463,37.2549858 L52.7498463,37.2549858 Z" id="Shape" fill="#0C0C0D"></path>
                </g>
            </g>
        </g>
    </g>
</svg>